<svg fill="#000000" xmlns="http://www.w3.org/2000/svg"  viewBox="0 0 80 80" width="80px" height="80px"><path d="M 4 17 C 3.45 17 3 17.45 3 18 C 3 18.55 3.45 19 4 19 C 4.55 19 5 18.55 5 18 C 5 17.45 4.55 17 4 17 z M 8 17 C 7.45 17 7 17.45 7 18 C 7 18.55 7.45 19 8 19 C 8.55 19 9 18.55 9 18 C 9 17.45 8.55 17 8 17 z M 12 17 C 11.45 17 11 17.45 11 18 C 11 18.55 11.45 19 12 19 C 12.55 19 13 18.55 13 18 C 13 17.45 12.55 17 12 17 z M 16 17 C 15.45 17 15 17.45 15 18 C 15 18.55 15.45 19 16 19 C 16.55 19 17 18.55 17 18 C 17 17.45 16.55 17 16 17 z M 20 17 C 19.45 17 19 17.45 19 18 C 19 18.55 19.45 19 20 19 C 20.55 19 21 18.55 21 18 C 21 17.45 20.55 17 20 17 z M 24 17 C 23.45 17 23 17.45 23 18 C 23 18.55 23.45 19 24 19 C 24.55 19 25 18.55 25 18 C 25 17.45 24.55 17 24 17 z M 28 17 C 27.45 17 27 17.45 27 18 C 27 18.55 27.45 19 28 19 C 28.55 19 29 18.55 29 18 C 29 17.45 28.55 17 28 17 z M 32 17 C 31.45 17 31 17.45 31 18 C 31 18.55 31.45 19 32 19 C 32.55 19 33 18.55 33 18 C 33 17.45 32.55 17 32 17 z M 36 17 C 35.45 17 35 17.45 35 18 C 35 18.55 35.45 19 36 19 C 36.55 19 37 18.55 37 18 C 37 17.45 36.55 17 36 17 z M 40 17 C 39.45 17 39 17.45 39 18 C 39 18.55 39.45 19 40 19 C 40.55 19 41 18.55 41 18 C 41 17.45 40.55 17 40 17 z M 44 17 C 43.45 17 43 17.45 43 18 C 43 18.55 43.45 19 44 19 C 44.55 19 45 18.55 45 18 C 45 17.45 44.55 17 44 17 z M 48 17 C 47.45 17 47 17.45 47 18 C 47 18.55 47.45 19 48 19 C 48.55 19 49 18.55 49 18 C 49 17.45 48.55 17 48 17 z M 52 17 C 51.439 17 51 17.45 51 18 C 51 18.55 51.439 19 52 19 C 52.55 19 53 18.55 53 18 C 53 17.45 52.55 17 52 17 z M 56 17 C 55.45 17 55 17.45 55 18 C 55 18.55 55.45 19 56 19 C 56.55 19 57 18.55 57 18 C 57 17.45 56.55 17 56 17 z M 60 17 C 59.45 17 59 17.45 59 18 C 59 18.55 59.45 19 60 19 C 60.55 19 61 18.55 61 18 C 61 17.45 60.55 17 60 17 z M 64 17 C 63.45 17 63 17.45 63 18 C 63 18.55 63.45 19 64 19 C 64.55 19 65 18.55 65 18 C 65 17.45 64.55 17 64 17 z M 68 17 C 67.45 17 67 17.45 67 18 C 67 18.55 67.45 19 68 19 C 68.55 19 69 18.55 69 18 C 69 17.45 68.55 17 68 17 z M 72 17 C 71.439 17 71 17.45 71 18 C 71 18.55 71.439 19 72 19 C 72.55 19 73 18.55 73 18 C 73 17.45 72.55 17 72 17 z M 76 17 C 75.45 17 75 17.45 75 18 C 75 18.55 75.45 19 76 19 C 76.55 19 77 18.55 77 18 C 77 17.45 76.55 17 76 17 z M 3 22 A 1.0001 1.0001 0 0 0 2.2929688 23.707031 L 5 26.414062 L 5 62 A 1.0001 1.0001 0 0 0 6.6542969 62.755859 L 21.091797 50.244141 L 31.462891 56.84375 A 1.0001 1.0001 0 0 0 32.554688 56.832031 L 38.03125 53.179688 L 44.158203 56.798828 A 1.0001 1.0001 0 0 0 45.207031 56.779297 L 55.818359 49.962891 C 55.879474 49.974854 55.93801 50 56 50 C 56.018288 50 56.035254 49.995359 56.052734 49.994141 L 60.365234 53.535156 A 1.0001 1.0001 0 0 0 62 52.763672 L 62 49.271484 L 63.136719 51.214844 A 1.0001 1.0001 0 0 0 64.863281 51.214844 L 66 49.271484 L 66 57.894531 A 1.0001 1.0001 0 0 0 66.435547 58.720703 L 72.435547 62.826172 A 1.0001 1.0001 0 0 0 74 62 L 74 26.570312 L 77.609375 23.792969 A 1.0001 1.0001 0 0 0 77 22 L 67 22 A 1.0001 1.0001 0 0 0 66.078125 22.615234 L 64 27.591797 L 61.921875 22.615234 A 1.0001 1.0001 0 0 0 61 22 L 56 22 L 21 22 A 1.0001 1.0001 0 0 0 20 23 L 20 23.585938 L 18.707031 22.292969 A 1.0001 1.0001 0 0 0 18 22 L 3 22 z M 5.4140625 24 L 17.585938 24 L 20.292969 26.707031 A 1.0001 1.0001 0 0 0 22 26 L 22 24 L 37 24 C 37 24.26 37.108063 24.520937 37.289062 24.710938 C 37.478062 24.890938 37.74 25 38 25 C 38.26 25 38.520938 24.890938 38.710938 24.710938 C 38.800938 24.610938 38.869922 24.510859 38.919922 24.380859 C 38.969922 24.260859 39 24.13 39 24 L 55 24 C 55 24.13 55.030078 24.260859 55.080078 24.380859 C 55.130078 24.500859 55.199062 24.610937 55.289062 24.710938 C 55.478062 24.890938 55.74 25 56 25 C 56.069 25 56.129219 24.990469 56.199219 24.980469 C 56.259219 24.970469 56.319859 24.949922 56.380859 24.919922 C 56.440859 24.899922 56.500547 24.870078 56.560547 24.830078 C 56.609547 24.800078 56.660938 24.750937 56.710938 24.710938 C 56.800937 24.610938 56.869922 24.500859 56.919922 24.380859 C 56.969922 24.260859 57 24.13 57 24 L 60.333984 24 L 63.078125 30.570312 A 1.0001 1.0001 0 0 0 64.921875 30.570312 L 67.664062 24 L 74.0625 24 L 72.390625 25.287109 A 1.0001 1.0001 0 0 0 72 26.078125 L 72 60.103516 L 68 57.367188 L 68 45.578125 A 1.0001 1.0001 0 0 0 66.136719 45.074219 L 64 48.730469 L 61.863281 45.074219 A 1.0001 1.0001 0 0 0 60 45.578125 L 60 50.648438 L 56.634766 47.884766 A 1.0001 1.0001 0 0 0 55.458984 47.816406 L 44.644531 54.761719 L 38.507812 51.138672 A 1.0001 1.0001 0 0 0 37.445312 51.167969 L 31.988281 54.806641 L 21.537109 48.15625 A 1.0001 1.0001 0 0 0 20.345703 48.244141 L 7 59.810547 L 7 26 A 1.0001 1.0001 0 0 0 6.7070312 25.292969 L 5.4140625 24 z M 38 27.169922 C 37.45 27.169922 37 27.619922 37 28.169922 C 37 28.719922 37.45 29.169922 38 29.169922 C 38.55 29.169922 39 28.719922 39 28.169922 C 39 27.619922 38.55 27.169922 38 27.169922 z M 56 27.169922 C 55.45 27.169922 55 27.609922 55 28.169922 C 55 28.719922 55.45 29.169922 56 29.169922 C 56.55 29.169922 57 28.719922 57 28.169922 C 57 27.609922 56.55 27.169922 56 27.169922 z M 20.996094 28.011719 C 20.734844 28.011719 20.474063 28.104062 20.289062 28.289062 C 20.199063 28.379063 20.130078 28.489141 20.080078 28.619141 C 20.030078 28.739141 20 28.87 20 29 C 20 29.13 20.030078 29.260859 20.080078 29.380859 C 20.130078 29.510859 20.199063 29.620938 20.289062 29.710938 C 20.478063 29.890938 20.74 30 21 30 C 21.26 30 21.520937 29.890937 21.710938 29.710938 C 21.890938 29.520938 22 29.26 22 29 C 22 28.74 21.890937 28.479062 21.710938 28.289062 C 21.520938 28.104062 21.257344 28.011719 20.996094 28.011719 z M 11 29 A 1.0001 1.0001 0 0 0 10 30 L 10 47 A 1.0001 1.0001 0 0 0 11.625 47.78125 L 16.625 43.78125 A 1.0001 1.0001 0 0 0 17 43 L 17 30 A 1.0001 1.0001 0 0 0 16 29 L 11 29 z M 27 29 A 1.0001 1.0001 0 0 0 26 30 L 26 43 A 1.0001 1.0001 0 0 0 26.375 43.78125 L 31.375 47.78125 A 1.0001 1.0001 0 0 0 33 47 L 33 30 A 1.0001 1.0001 0 0 0 32 29 L 27 29 z M 45 29 A 1.0001 1.0001 0 0 0 44 30 L 44 47 A 1.0001 1.0001 0 0 0 45.625 47.78125 L 50.625 43.78125 A 1.0001 1.0001 0 0 0 51 43 L 51 30 A 1.0001 1.0001 0 0 0 50 29 L 45 29 z M 12 31 L 15 31 L 15 42.519531 L 12 44.917969 L 12 31 z M 28 31 L 31 31 L 31 44.917969 L 28 42.519531 L 28 31 z M 46 31 L 49 31 L 49 42.519531 L 46 44.917969 L 46 31 z M 38 31.330078 C 37.45 31.330078 37 31.780078 37 32.330078 C 37 32.890078 37.45 33.330078 38 33.330078 C 38.55 33.330078 39 32.890078 39 32.330078 C 39 31.780078 38.55 31.330078 38 31.330078 z M 56 31.330078 C 55.45 31.330078 55 31.780078 55 32.330078 C 55 32.890078 55.45 33.330078 56 33.330078 C 56.55 33.330078 57 32.890078 57 32.330078 C 57 31.780078 56.55 31.330078 56 31.330078 z M 21 32.25 C 20.45 32.25 20 32.7 20 33.25 C 20 33.8 20.45 34.25 21 34.25 C 21.55 34.25 22 33.8 22 33.25 C 22 32.7 21.55 32.25 21 32.25 z M 38 35.5 C 37.45 35.5 37 35.95 37 36.5 C 37 37.05 37.45 37.5 38 37.5 C 38.55 37.5 39 37.05 39 36.5 C 39 35.95 38.55 35.5 38 35.5 z M 56 35.5 C 55.45 35.5 55 35.95 55 36.5 C 55 37.05 55.45 37.5 56 37.5 C 56.55 37.5 57 37.05 57 36.5 C 57 35.95 56.55 35.5 56 35.5 z M 21 36.5 C 20.45 36.5 20 36.95 20 37.5 C 20 38.05 20.45 38.5 21 38.5 C 21.55 38.5 22 38.05 22 37.5 C 22 36.95 21.55 36.5 21 36.5 z M 38 39.669922 C 37.45 39.669922 37 40.109922 37 40.669922 C 37 41.219922 37.45 41.669922 38 41.669922 C 38.55 41.669922 39 41.219922 39 40.669922 C 39 40.109922 38.55 39.669922 38 39.669922 z M 56 39.669922 C 55.45 39.669922 55 40.109922 55 40.669922 C 55 41.219922 55.45 41.669922 56 41.669922 C 56.55 41.669922 57 41.219922 57 40.669922 C 57 40.109922 56.55 39.669922 56 39.669922 z M 21 40.75 C 20.45 40.75 20 41.2 20 41.75 C 20 42.3 20.45 42.75 21 42.75 C 21.55 42.75 22 42.3 22 41.75 C 22 41.2 21.55 40.75 21 40.75 z M 38 43.830078 C 37.45 43.830078 37 44.280078 37 44.830078 C 37 45.390078 37.45 45.830078 38 45.830078 C 38.55 45.830078 39 45.390078 39 44.830078 C 39 44.280078 38.55 43.830078 38 43.830078 z M 56 43.830078 C 55.45 43.830078 55 44.280078 55 44.830078 C 55 45.390078 55.45 45.830078 56 45.830078 C 56.55 45.830078 57 45.390078 57 44.830078 C 57 44.280078 56.55 43.830078 56 43.830078 z M 20.996094 45.011719 C 20.734844 45.011719 20.474063 45.104062 20.289062 45.289062 C 20.199063 45.389062 20.130078 45.489141 20.080078 45.619141 C 20.030078 45.739141 20 45.87 20 46 C 20 46.27 20.108063 46.520938 20.289062 46.710938 C 20.478063 46.890938 20.74 47 21 47 C 21.26 47 21.519984 46.890937 21.708984 46.710938 L 21.828125 46.560547 C 21.868125 46.500547 21.898922 46.440859 21.919922 46.380859 C 21.950922 46.320859 21.968516 46.259219 21.978516 46.199219 C 21.989516 46.129219 22 46.06 22 46 C 22 45.74 21.890937 45.479062 21.710938 45.289062 C 21.520938 45.104062 21.257344 45.011719 20.996094 45.011719 z M 37.996094 48.011719 C 37.734844 48.011719 37.474063 48.104062 37.289062 48.289062 C 37.108062 48.479062 37 48.74 37 49 C 37 49.26 37.108063 49.520938 37.289062 49.710938 C 37.478062 49.890938 37.74 50 38 50 C 38.26 50 38.520938 49.890937 38.710938 49.710938 C 38.890938 49.520938 39 49.26 39 49 C 39 48.87 38.969922 48.739141 38.919922 48.619141 C 38.869922 48.499141 38.800938 48.389063 38.710938 48.289062 C 38.520938 48.104062 38.257344 48.011719 37.996094 48.011719 z M 20.902344 54.011719 C 20.805203 54.020156 20.708891 54.042578 20.619141 54.080078 C 20.489141 54.130078 20.389063 54.199062 20.289062 54.289062 C 20.199063 54.389062 20.130078 54.499141 20.080078 54.619141 C 20.030078 54.739141 20 54.87 20 55 C 20 55.07 20.010531 55.129219 20.019531 55.199219 C 20.030531 55.259219 20.050078 55.320859 20.080078 55.380859 C 20.130078 55.510859 20.199063 55.610937 20.289062 55.710938 C 20.478063 55.890938 20.74 56 21 56 C 21.06 56 21.129453 55.990469 21.189453 55.980469 C 21.259453 55.970469 21.319859 55.949922 21.380859 55.919922 C 21.440859 55.899922 21.500781 55.870078 21.550781 55.830078 C 21.609781 55.790078 21.660937 55.750937 21.710938 55.710938 C 21.890937 55.520938 22 55.26 22 55 C 22 54.74 21.890937 54.479062 21.710938 54.289062 C 21.500937 54.086562 21.193766 53.986406 20.902344 54.011719 z M 55.951172 55 C 55.7025 55.012188 55.460813 55.116563 55.289062 55.289062 C 55.108063 55.479062 55 55.74 55 56 C 55 56.07 55.010531 56.129219 55.019531 56.199219 C 55.030531 56.259219 55.050078 56.320859 55.080078 56.380859 C 55.100078 56.440859 55.129922 56.500547 55.169922 56.560547 C 55.199922 56.610547 55.249063 56.660937 55.289062 56.710938 C 55.478062 56.890938 55.74 57 56 57 C 56.069 57 56.129219 56.990469 56.199219 56.980469 C 56.259219 56.970469 56.319859 56.949922 56.380859 56.919922 C 56.440859 56.899922 56.500547 56.870078 56.560547 56.830078 C 56.609547 56.790078 56.660938 56.750937 56.710938 56.710938 C 56.890937 56.520938 57 56.26 57 56 C 57 55.74 56.890937 55.479062 56.710938 55.289062 C 56.661937 55.249063 56.610547 55.209922 56.560547 55.169922 C 56.500547 55.129922 56.440859 55.100078 56.380859 55.080078 C 56.319859 55.050078 56.259219 55.029531 56.199219 55.019531 C 56.116719 55.002031 56.034063 54.995937 55.951172 55 z M 24.832031 56.345703 C 24.449484 56.280547 24.044109 56.448281 23.818359 56.800781 C 23.529359 57.260781 23.660859 57.879688 24.130859 58.179688 C 24.300859 58.279688 24.478922 58.330078 24.669922 58.330078 C 24.999922 58.330078 25.319766 58.169141 25.509766 57.869141 C 25.808766 57.399141 25.669219 56.790234 25.199219 56.490234 C 25.084219 56.415234 24.959547 56.367422 24.832031 56.345703 z M 18.041016 56.751953 C 17.784641 56.740703 17.525312 56.824766 17.320312 57.009766 C 16.920312 57.389766 16.889766 58.019688 17.259766 58.429688 C 17.459766 58.639688 17.729953 58.75 18.001953 58.75 C 18.241953 58.75 18.481875 58.660234 18.671875 58.490234 C 19.081875 58.110234 19.109234 57.480312 18.740234 57.070312 C 18.549734 56.870313 18.297391 56.763203 18.041016 56.751953 z M 52.232422 57.005859 C 52.102187 57.018047 51.972109 57.054141 51.849609 57.119141 C 51.369609 57.389141 51.189937 57.990469 51.460938 58.480469 C 51.640938 58.810469 51.979078 59 52.330078 59 C 52.490078 59 52.660547 58.960859 52.810547 58.880859 C 53.290547 58.610859 53.480938 57.999531 53.210938 57.519531 C 53.016687 57.159531 52.623125 56.969297 52.232422 57.005859 z M 37.996094 57.011719 C 37.734844 57.011719 37.474063 57.104062 37.289062 57.289062 C 37.108062 57.479062 37 57.74 37 58 C 37 58.26 37.108063 58.520938 37.289062 58.710938 C 37.478062 58.890938 37.74 59 38 59 C 38.26 59 38.520938 58.890937 38.710938 58.710938 C 38.890938 58.520938 39 58.26 39 58 C 39 57.87 38.969922 57.739141 38.919922 57.619141 C 38.869922 57.499141 38.800938 57.389063 38.710938 57.289062 C 38.520938 57.104062 38.257344 57.011719 37.996094 57.011719 z M 59.335938 57.515625 C 59.084563 57.556875 58.849453 57.694922 58.689453 57.919922 C 58.358453 58.369922 58.469922 58.990547 58.919922 59.310547 C 59.089922 59.440547 59.3 59.5 59.5 59.5 C 59.81 59.5 60.121547 59.350078 60.310547 59.080078 C 60.631547 58.630078 60.530078 58.009453 60.080078 57.689453 C 59.854578 57.529453 59.587312 57.474375 59.335938 57.515625 z M 28.498047 58.679688 C 28.114 58.615938 27.715234 58.778359 27.490234 59.130859 C 27.190234 59.600859 27.330781 60.209766 27.800781 60.509766 C 27.960781 60.619766 28.149078 60.669922 28.330078 60.669922 C 28.660078 60.669922 28.990687 60.499219 29.179688 60.199219 C 29.469688 59.739219 29.339141 59.120312 28.869141 58.820312 C 28.751391 58.747813 28.626062 58.700938 28.498047 58.679688 z M 41.621094 59.005859 C 41.231563 58.959453 40.833359 59.14 40.630859 59.5 C 40.359859 59.98 40.52 60.589141 41 60.869141 C 41.16 60.959141 41.33 61 41.5 61 C 41.85 61 42.179141 60.82 42.369141 60.5 C 42.639141 60.02 42.479 59.410859 42 59.130859 C 41.88 59.063359 41.750937 59.021328 41.621094 59.005859 z M 48.566406 59.005859 C 48.437562 59.018047 48.309453 59.054141 48.189453 59.119141 C 47.700453 59.389141 47.518062 59.990469 47.789062 60.480469 C 47.969062 60.810469 48.309922 61 48.669922 61 C 48.829922 61 48.989438 60.960859 49.148438 60.880859 C 49.629438 60.610859 49.809063 60.009531 49.539062 59.519531 C 49.344063 59.159531 48.952937 58.969297 48.566406 59.005859 z M 34.808594 59.017578 C 34.680062 59.041953 34.554453 59.092422 34.439453 59.169922 C 33.989453 59.469922 33.858922 60.100547 34.169922 60.560547 C 34.358922 60.840547 34.68 61 35 61 C 35.189 61 35.380547 60.950078 35.560547 60.830078 C 36.011547 60.530078 36.140078 59.899453 35.830078 59.439453 C 35.605078 59.101953 35.194187 58.944453 34.808594 59.017578 z M 15.041016 59.501953 C 14.784641 59.490703 14.525313 59.574766 14.320312 59.759766 C 13.920313 60.139766 13.889766 60.769688 14.259766 61.179688 C 14.459766 61.389688 14.729 61.5 15 61.5 C 15.241 61.5 15.479688 61.410234 15.679688 61.240234 C 16.080688 60.860234 16.109234 60.230312 15.740234 59.820312 C 15.549734 59.620313 15.297391 59.513203 15.041016 59.501953 z M 62.835938 60.015625 C 62.584563 60.056875 62.349453 60.194922 62.189453 60.419922 C 61.869453 60.869922 61.969922 61.490547 62.419922 61.810547 C 62.589922 61.940547 62.8 62 63 62 C 63.31 62 63.620547 61.850078 63.810547 61.580078 C 64.131547 61.130078 64.030078 60.509453 63.580078 60.189453 C 63.354578 60.029453 63.087312 59.974375 62.835938 60.015625 z M 31.90625 61.005859 C 31.808594 61.015547 31.711641 61.040078 31.619141 61.080078 C 31.489141 61.130078 31.389063 61.199062 31.289062 61.289062 C 31.108062 61.479062 31 61.74 31 62 C 31 62.26 31.108063 62.520938 31.289062 62.710938 C 31.478062 62.890938 31.74 63 32 63 C 32.26 63 32.520938 62.890937 32.710938 62.710938 C 32.890938 62.520938 33 62.26 33 62 C 33 61.74 32.890937 61.479062 32.710938 61.289062 C 32.500937 61.079063 32.199219 60.976797 31.90625 61.005859 z M 44.996094 61.011719 C 44.734844 61.011719 44.474063 61.104062 44.289062 61.289062 C 44.199063 61.389062 44.130078 61.499141 44.080078 61.619141 C 44.020078 61.739141 44 61.87 44 62 C 44 62.26 44.108063 62.520938 44.289062 62.710938 C 44.478062 62.890938 44.74 63 45 63 C 45.26 63 45.520938 62.890937 45.710938 62.710938 C 45.890938 62.520938 46 62.26 46 62 C 46 61.87 45.978922 61.739141 45.919922 61.619141 C 45.869922 61.499141 45.800938 61.389063 45.710938 61.289062 C 45.520938 61.104062 45.257344 61.011719 44.996094 61.011719 z M 12.041016 62.251953 C 11.784641 62.240703 11.525313 62.324766 11.320312 62.509766 C 10.920313 62.889766 10.889766 63.519688 11.259766 63.929688 C 11.459766 64.139688 11.729 64.25 12 64.25 C 12.241 64.25 12.479688 64.160234 12.679688 63.990234 C 13.080688 63.610234 13.109234 62.980312 12.740234 62.570312 C 12.549734 62.370313 12.297391 62.263203 12.041016 62.251953 z M 66.335938 62.515625 C 66.084563 62.556875 65.849453 62.694922 65.689453 62.919922 C 65.358453 63.369922 65.469922 63.990547 65.919922 64.310547 C 66.099922 64.440547 66.3 64.5 66.5 64.5 C 66.81 64.5 67.121547 64.350078 67.310547 64.080078 C 67.641547 63.630078 67.530078 63.009453 67.080078 62.689453 C 66.854578 62.529453 66.587312 62.474375 66.335938 62.515625 z M 69.947266 65.003906 C 69.703234 65.0175 69.462766 65.116563 69.291016 65.289062 C 69.251016 65.339062 69.201875 65.389219 69.171875 65.449219 C 69.131875 65.499219 69.100078 65.559141 69.080078 65.619141 C 69.049078 65.679141 69.030531 65.740781 69.019531 65.800781 C 69.009531 65.870781 69 65.94 69 66 C 69 66.06 69.010531 66.129219 69.019531 66.199219 C 69.030531 66.259219 69.050078 66.320859 69.080078 66.380859 C 69.100078 66.440859 69.129922 66.500781 69.169922 66.550781 C 69.199922 66.610781 69.249062 66.660938 69.289062 66.710938 C 69.478063 66.890937 69.74 67 70 67 C 70.06 67 70.129453 66.990469 70.189453 66.980469 C 70.259453 66.970469 70.319859 66.949922 70.380859 66.919922 C 70.440859 66.899922 70.500781 66.870078 70.550781 66.830078 C 70.609781 66.790078 70.660938 66.750938 70.710938 66.710938 C 70.890938 66.520937 71 66.26 71 66 C 71 65.74 70.890938 65.479062 70.710938 65.289062 C 70.660938 65.249062 70.610781 65.209922 70.550781 65.169922 C 70.500781 65.129922 70.440859 65.100078 70.380859 65.080078 C 70.320859 65.050078 70.259453 65.029531 70.189453 65.019531 C 70.109703 65.004531 70.028609 64.999375 69.947266 65.003906 z M 8.9023438 65.009766 C 8.8052031 65.018984 8.7088906 65.042578 8.6191406 65.080078 C 8.4891406 65.130078 8.3890625 65.199062 8.2890625 65.289062 C 8.1080625 65.479063 8 65.74 8 66 C 8 66.26 8.1080625 66.520938 8.2890625 66.710938 C 8.3890625 66.800937 8.4891406 66.869922 8.6191406 66.919922 C 8.7391406 66.969922 8.87 67 9 67 C 9.26 67 9.5209375 66.890938 9.7109375 66.710938 C 9.8909375 66.520937 10 66.26 10 66 C 10 65.74 9.8909375 65.479062 9.7109375 65.289062 C 9.5009375 65.079063 9.1937656 64.982109 8.9023438 65.009766 z"/></svg>